<mxfile host="app.diagrams.net" agent="Mozilla/5.0 (Windows NT 10.0; Win64; x64) AppleWebKit/537.36 (KHTML, like Gecko) Chrome/130.0.0.0 Safari/537.36" version="24.8.3">
  <diagram name="Page-1" id="rVJaWI2pYBklcYkn2tDm">
    <mxGraphModel dx="930" dy="557" grid="1" gridSize="10" guides="1" tooltips="1" connect="1" arrows="1" fold="1" page="1" pageScale="1" pageWidth="850" pageHeight="1100" math="0" shadow="0">
      <root>
        <mxCell id="0" />
        <mxCell id="1" parent="0" />
        <mxCell id="KhLmDeVUJ975uq5TVsxX-2" value="" style="rounded=0;whiteSpace=wrap;html=1;" vertex="1" parent="1">
          <mxGeometry x="120" y="145" width="680" height="355" as="geometry" />
        </mxCell>
        <mxCell id="dqSMolaptxXMsk7kJBbx-4" style="edgeStyle=orthogonalEdgeStyle;rounded=0;orthogonalLoop=1;jettySize=auto;html=1;" parent="1" source="dqSMolaptxXMsk7kJBbx-2" target="dqSMolaptxXMsk7kJBbx-3" edge="1">
          <mxGeometry relative="1" as="geometry" />
        </mxCell>
        <mxCell id="dqSMolaptxXMsk7kJBbx-19" style="edgeStyle=orthogonalEdgeStyle;rounded=0;orthogonalLoop=1;jettySize=auto;html=1;" parent="1" source="dqSMolaptxXMsk7kJBbx-8" target="dqSMolaptxXMsk7kJBbx-16" edge="1">
          <mxGeometry relative="1" as="geometry">
            <Array as="points">
              <mxPoint x="340" y="380" />
            </Array>
          </mxGeometry>
        </mxCell>
        <mxCell id="dqSMolaptxXMsk7kJBbx-2" value="" style="verticalLabelPosition=bottom;sketch=0;html=1;fillColor=#A153A0;strokeColor=#ffffff;verticalAlign=top;align=center;points=[[0,0.5,0],[0.125,0.25,0],[0.25,0,0],[0.5,0,0],[0.75,0,0],[0.875,0.25,0],[1,0.5,0],[0.875,0.75,0],[0.75,1,0],[0.5,1,0],[0.125,0.75,0]];pointerEvents=1;shape=mxgraph.cisco_safe.compositeIcon;bgIcon=ellipse;resIcon=mxgraph.cisco_safe.design.user;" parent="1" vertex="1">
          <mxGeometry x="140" y="190" width="50" height="50" as="geometry" />
        </mxCell>
        <mxCell id="dqSMolaptxXMsk7kJBbx-3" value="" style="image;aspect=fixed;html=1;points=[];align=center;fontSize=12;image=img/lib/azure2/general/Browser.svg;" parent="1" vertex="1">
          <mxGeometry x="290" y="189" width="65" height="52" as="geometry" />
        </mxCell>
        <mxCell id="dqSMolaptxXMsk7kJBbx-5" value="Upload Image" style="text;html=1;align=center;verticalAlign=middle;resizable=0;points=[];autosize=1;strokeColor=none;fillColor=none;" parent="1" vertex="1">
          <mxGeometry x="180" y="168" width="100" height="30" as="geometry" />
        </mxCell>
        <mxCell id="dqSMolaptxXMsk7kJBbx-14" style="edgeStyle=orthogonalEdgeStyle;rounded=0;orthogonalLoop=1;jettySize=auto;html=1;" parent="1" source="dqSMolaptxXMsk7kJBbx-7" target="dqSMolaptxXMsk7kJBbx-12" edge="1">
          <mxGeometry relative="1" as="geometry" />
        </mxCell>
        <mxCell id="dqSMolaptxXMsk7kJBbx-7" value="" style="verticalLabelPosition=bottom;html=1;verticalAlign=top;align=center;strokeColor=none;fillColor=#00BEF2;shape=mxgraph.azure.server_rack;" parent="1" vertex="1">
          <mxGeometry x="460" y="190" width="50" height="50" as="geometry" />
        </mxCell>
        <mxCell id="dqSMolaptxXMsk7kJBbx-8" value="Frontend" style="text;html=1;align=center;verticalAlign=middle;resizable=0;points=[];autosize=1;strokeColor=none;fillColor=none;" parent="1" vertex="1">
          <mxGeometry x="285" y="248" width="70" height="30" as="geometry" />
        </mxCell>
        <mxCell id="dqSMolaptxXMsk7kJBbx-9" value="Backend" style="text;html=1;align=center;verticalAlign=middle;resizable=0;points=[];autosize=1;strokeColor=none;fillColor=none;" parent="1" vertex="1">
          <mxGeometry x="445" y="258" width="70" height="30" as="geometry" />
        </mxCell>
        <mxCell id="dqSMolaptxXMsk7kJBbx-10" style="edgeStyle=orthogonalEdgeStyle;rounded=0;orthogonalLoop=1;jettySize=auto;html=1;entryX=0;entryY=0.5;entryDx=0;entryDy=0;entryPerimeter=0;" parent="1" source="dqSMolaptxXMsk7kJBbx-3" target="dqSMolaptxXMsk7kJBbx-7" edge="1">
          <mxGeometry relative="1" as="geometry" />
        </mxCell>
        <mxCell id="dqSMolaptxXMsk7kJBbx-17" style="edgeStyle=orthogonalEdgeStyle;rounded=0;orthogonalLoop=1;jettySize=auto;html=1;" parent="1" source="dqSMolaptxXMsk7kJBbx-12" target="dqSMolaptxXMsk7kJBbx-16" edge="1">
          <mxGeometry relative="1" as="geometry">
            <Array as="points">
              <mxPoint x="740" y="400" />
            </Array>
          </mxGeometry>
        </mxCell>
        <mxCell id="dqSMolaptxXMsk7kJBbx-12" value="Amazon S3" style="sketch=0;outlineConnect=0;fontColor=#232F3E;gradientColor=none;strokeColor=#ffffff;fillColor=#232F3E;dashed=0;verticalLabelPosition=middle;verticalAlign=bottom;align=center;html=1;whiteSpace=wrap;fontSize=10;fontStyle=1;spacing=3;shape=mxgraph.aws4.productIcon;prIcon=mxgraph.aws4.s3;" parent="1" vertex="1">
          <mxGeometry x="700" y="165" width="80" height="100" as="geometry" />
        </mxCell>
        <mxCell id="dqSMolaptxXMsk7kJBbx-13" value="send Image" style="text;html=1;align=center;verticalAlign=middle;resizable=0;points=[];autosize=1;strokeColor=none;fillColor=none;" parent="1" vertex="1">
          <mxGeometry x="355" y="178" width="90" height="30" as="geometry" />
        </mxCell>
        <mxCell id="dqSMolaptxXMsk7kJBbx-15" value="Image Name: 16 digit encrypted key&lt;br&gt;Image" style="text;html=1;align=center;verticalAlign=middle;resizable=0;points=[];autosize=1;strokeColor=none;fillColor=none;" parent="1" vertex="1">
          <mxGeometry x="480" y="165" width="220" height="40" as="geometry" />
        </mxCell>
        <mxCell id="dqSMolaptxXMsk7kJBbx-21" style="edgeStyle=orthogonalEdgeStyle;rounded=0;orthogonalLoop=1;jettySize=auto;html=1;" parent="1" source="dqSMolaptxXMsk7kJBbx-16" target="dqSMolaptxXMsk7kJBbx-12" edge="1">
          <mxGeometry relative="1" as="geometry">
            <Array as="points">
              <mxPoint x="730" y="380" />
            </Array>
          </mxGeometry>
        </mxCell>
        <mxCell id="dqSMolaptxXMsk7kJBbx-26" style="edgeStyle=orthogonalEdgeStyle;rounded=0;orthogonalLoop=1;jettySize=auto;html=1;" parent="1" source="dqSMolaptxXMsk7kJBbx-16" target="dqSMolaptxXMsk7kJBbx-8" edge="1">
          <mxGeometry relative="1" as="geometry" />
        </mxCell>
        <mxCell id="dqSMolaptxXMsk7kJBbx-16" value="Amazon Cloudfront" style="sketch=0;outlineConnect=0;fontColor=#232F3E;gradientColor=none;strokeColor=#ffffff;fillColor=#232F3E;dashed=0;verticalLabelPosition=middle;verticalAlign=bottom;align=center;html=1;whiteSpace=wrap;fontSize=10;fontStyle=1;spacing=3;shape=mxgraph.aws4.productIcon;prIcon=mxgraph.aws4.cloudfront;" parent="1" vertex="1">
          <mxGeometry x="460" y="360" width="80" height="110" as="geometry" />
        </mxCell>
        <mxCell id="dqSMolaptxXMsk7kJBbx-20" value="Access the Image using Image URL&lt;br&gt;E.g: cloudfrontURL/5aed6a5de5d6e67a.png" style="text;html=1;align=center;verticalAlign=middle;resizable=0;points=[];autosize=1;strokeColor=none;fillColor=none;" parent="1" vertex="1">
          <mxGeometry x="340" y="310" width="260" height="40" as="geometry" />
        </mxCell>
        <mxCell id="dqSMolaptxXMsk7kJBbx-22" value="Request Image if not in cache" style="text;html=1;align=center;verticalAlign=middle;resizable=0;points=[];autosize=1;strokeColor=none;fillColor=none;" parent="1" vertex="1">
          <mxGeometry x="550" y="350" width="180" height="30" as="geometry" />
        </mxCell>
        <mxCell id="dqSMolaptxXMsk7kJBbx-25" value="send image" style="text;html=1;align=center;verticalAlign=middle;resizable=0;points=[];autosize=1;strokeColor=none;fillColor=none;" parent="1" vertex="1">
          <mxGeometry x="610" y="400" width="90" height="30" as="geometry" />
        </mxCell>
        <mxCell id="dqSMolaptxXMsk7kJBbx-27" value="Send Image" style="text;html=1;align=center;verticalAlign=middle;resizable=0;points=[];autosize=1;strokeColor=none;fillColor=none;" parent="1" vertex="1">
          <mxGeometry x="320" y="428" width="90" height="30" as="geometry" />
        </mxCell>
        <mxCell id="KhLmDeVUJ975uq5TVsxX-1" value="" style="rounded=0;whiteSpace=wrap;html=1;" vertex="1" parent="1">
          <mxGeometry x="360" y="260" width="120" height="60" as="geometry" />
        </mxCell>
      </root>
    </mxGraphModel>
  </diagram>
</mxfile>
